# xmcd CD database file
#
# Track frame offsets:
#	150
#	10313
#	19682
#	27308
#	36699
#	47671
#	57424
#	66719
#	80050
#	90207
#	99181
#	109293
#	118427
#	127765
#	136974
#	149715
#	160464
#	169369
#
# Disc length: 2410 seconds
#
# Revision: 0
# Processed by: cddbd v1.5.2PL0 Copyright (c) Steve Scherf et al.
# Submitted via: CDex 1.51
#
DISCID=0a096812
DTITLE=Tom T Hall - Country songs for Kids
DYEAR=2008
DGENRE=Country
TTITLE0=Tom T. Hall - Everybody Loves To Hear A Bird
TTITLE1=Tom T. Hall - Fox Hollow's Animal Train
TTITLE2=Tom T. Hall - How To Talk To A Little Baby G
TTITLE3=Tom T. Hall - I Care
TTITLE4=Tom T. Hall - I Like To Feel Pretty Inside
TTITLE5=Tom T. Hall - I Love
TTITLE6=Tom T. Hall - I Wish I Had A Million Friends
TTITLE7=Tom T. Hall - Let's Go Shopping Today
TTITLE8=Tom T. Hall - Let's Play Remember
TTITLE9=Tom T. Hall - Ole Lonesome George The Basset
TTITLE10=Tom T. Hall - Randy Raccoon
TTITLE11=Tom T. Hall - Sneaky Snake
TTITLE12=Tom T. Hall - The Barn Dance
TTITLE13=Tom T. Hall - The Dancing Tree
TTITLE14=Tom T. Hall - The Duck And The Rooster
TTITLE15=Tom T. Hall - The Mysterious Fox Of Fox Holl
TTITLE16=Tom T. Hall - The Song Of The One Legged Chi
TTITLE17=Tom T. Hall - You Are A Star (Brittni's Song
EXTD=YEAR: 2008
EXTT0=
EXTT1=
EXTT2=
EXTT3=
EXTT4=
EXTT5=
EXTT6=
EXTT7=
EXTT8=
EXTT9=
EXTT10=
EXTT11=
EXTT12=
EXTT13=
EXTT14=
EXTT15=
EXTT16=
EXTT17=
PLAYORDER=
